<svg width="26" height="28" viewBox="0 0 26 28" fill="none" xmlns="http://www.w3.org/2000/svg">
<path fill-rule="evenodd" clip-rule="evenodd" d="M6.81291 2.81282C8.45386 1.17187 10.6795 0.25 13.0001 0.25C15.3207 0.25 17.5463 1.17187 19.1873 2.81282C20.8282 4.45376 21.7501 6.67936 21.7501 9C21.7501 13.1908 22.6464 15.7933 23.4725 17.3077C23.8872 18.068 24.2911 18.5669 24.5716 18.863C24.7122 19.0114 24.8227 19.1098 24.8892 19.1652C24.9225 19.1929 24.9448 19.21 24.9544 19.2171C24.9559 19.2182 24.9571 19.2191 24.958 19.2198C25.4061 19.5276 25.6044 20.0906 25.4465 20.6122C25.2868 21.1394 24.8009 21.5 24.2501 21.5H1.7501C1.19926 21.5 0.713355 21.1394 0.553732 20.6122C0.395804 20.0906 0.594102 19.5276 1.04221 19.2198C1.04308 19.2191 1.04428 19.2182 1.04578 19.2171C1.05541 19.21 1.07772 19.1929 1.111 19.1652C1.17752 19.1098 1.288 19.0114 1.42859 18.863C1.70913 18.5669 2.11298 18.068 2.52773 17.3077C3.35376 15.7933 4.2501 13.1908 4.2501 9C4.2501 6.67936 5.17197 4.45376 6.81291 2.81282ZM1.05484 19.2112C1.05494 19.2111 1.05504 19.2111 1.05514 19.211C1.05513 19.211 1.05513 19.211 1.05512 19.211L1.05484 19.2112ZM4.43675 19H21.5634C21.4683 18.8442 21.3729 18.6792 21.2777 18.5048C20.2288 16.5817 19.2501 13.5592 19.2501 9C19.2501 7.3424 18.5916 5.75268 17.4195 4.58058C16.2474 3.40848 14.6577 2.75 13.0001 2.75C11.3425 2.75 9.75278 3.40848 8.58068 4.58058C7.40858 5.75268 6.7501 7.3424 6.7501 9C6.7501 13.5592 5.77143 16.5817 4.72247 18.5048C4.62734 18.6792 4.53186 18.8442 4.43675 19ZM10.2104 24.1687C10.8075 23.8223 11.5724 24.0256 11.9188 24.6228C12.0287 24.8122 12.1864 24.9694 12.3762 25.0787C12.566 25.188 12.7811 25.2455 13.0001 25.2455C13.2191 25.2455 13.4342 25.188 13.624 25.0787C13.8137 24.9694 13.9715 24.8122 14.0813 24.6228C14.4277 24.0256 15.1927 23.8223 15.7898 24.1687C16.387 24.5151 16.5902 25.28 16.2438 25.8772C15.9142 26.4455 15.4411 26.9172 14.8718 27.2451C14.3025 27.573 13.6571 27.7455 13.0001 27.7455C12.3431 27.7455 11.6977 27.573 11.1284 27.2451C10.5591 26.9172 10.086 26.4455 9.75635 25.8772C9.40995 25.28 9.61322 24.5151 10.2104 24.1687Z" fill="#2F363D"/>
</svg>
