<svg width="14" height="24" viewBox="0 0 14 24" fill="none" xmlns="http://www.w3.org/2000/svg">
<path fill-rule="evenodd" clip-rule="evenodd" d="M7 0.249969C7.41421 0.249969 7.75 0.585756 7.75 0.999969V4.25H12C12.4142 4.25 12.75 4.58579 12.75 5C12.75 5.41422 12.4142 5.75 12 5.75H7.75V11.25H9.5C10.6272 11.25 11.7082 11.6978 12.5052 12.4948C13.3022 13.2918 13.75 14.3728 13.75 15.5C13.75 16.6272 13.3022 17.7082 12.5052 18.5052C11.7082 19.3022 10.6272 19.75 9.5 19.75H7.75V23C7.75 23.4142 7.41421 23.75 7 23.75C6.58579 23.75 6.25 23.4142 6.25 23V19.75H1C0.585786 19.75 0.25 19.4142 0.25 19C0.25 18.5858 0.585786 18.25 1 18.25H6.25V12.75H4.5C3.37283 12.75 2.29183 12.3022 1.4948 11.5052C0.697767 10.7082 0.25 9.62717 0.25 8.5C0.25 7.37283 0.697767 6.29183 1.4948 5.4948C2.29183 4.69777 3.37283 4.25 4.5 4.25H6.25V0.999969C6.25 0.585756 6.58579 0.249969 7 0.249969ZM6.25 5.75H4.5C3.77065 5.75 3.07118 6.03973 2.55546 6.55546C2.03973 7.07118 1.75 7.77066 1.75 8.5C1.75 9.22935 2.03973 9.92882 2.55546 10.4445C3.07118 10.9603 3.77065 11.25 4.5 11.25H6.25V5.75ZM7.75 12.75V18.25H9.5C10.2293 18.25 10.9288 17.9603 11.4445 17.4445C11.9603 16.9288 12.25 16.2293 12.25 15.5C12.25 14.7707 11.9603 14.0712 11.4445 13.5555C10.9288 13.0397 10.2293 12.75 9.5 12.75H7.75Z" fill="#2F363D"/>
</svg>
