<svg width="20" height="20" viewBox="0 0 20 20" fill="none" xmlns="http://www.w3.org/2000/svg">
<path fill-rule="evenodd" clip-rule="evenodd" d="M16 2.87865C15.7026 2.87865 15.4174 2.99679 15.2071 3.20707L2.90299 15.5112L2.37439 17.6256L4.48877 17.097L16.7929 4.79286C16.897 4.68874 16.9796 4.56512 17.036 4.42908C17.0923 4.29303 17.1213 4.14722 17.1213 3.99997C17.1213 3.85271 17.0923 3.7069 17.036 3.57086C16.9796 3.43481 16.897 3.3112 16.7929 3.20707C16.6888 3.10295 16.5652 3.02035 16.4291 2.964C16.2931 2.90765 16.1473 2.87865 16 2.87865ZM13.7929 1.79286C14.3783 1.2075 15.1722 0.878647 16 0.878647C16.4099 0.878647 16.8158 0.959382 17.1945 1.11624C17.5732 1.2731 17.9173 1.50302 18.2071 1.79286C18.497 2.0827 18.7269 2.42679 18.8837 2.80549C19.0406 3.18419 19.1213 3.59007 19.1213 3.99997C19.1213 4.40987 19.0406 4.81575 18.8837 5.19444C18.7269 5.57314 18.497 5.91723 18.2071 6.20707L5.70713 18.7071C5.57897 18.8352 5.41839 18.9262 5.24256 18.9701L1.24256 19.9701C0.901782 20.0553 0.541295 19.9555 0.292914 19.7071C0.0445341 19.4587 -0.055315 19.0982 0.0298787 18.7574L1.02988 14.7574C1.07384 14.5816 1.16476 14.421 1.29291 14.2929L13.7929 1.79286ZM9.00002 19C9.00002 18.4477 9.44774 18 10 18H19C19.5523 18 20 18.4477 20 19C20 19.5523 19.5523 20 19 20H10C9.44774 20 9.00002 19.5523 9.00002 19Z" fill="#2F363D"/>
</svg>
