<svg width="18" height="22" viewBox="0 0 18 22" fill="none" xmlns="http://www.w3.org/2000/svg">
<path fill-rule="evenodd" clip-rule="evenodd" d="M9 1.60413C6.9943 1.60413 5.07075 2.40089 3.6525 3.81913C2.23426 5.23737 1.4375 7.16093 1.4375 9.16662C1.4375 12.0986 3.33894 14.9102 5.37409 17.0584C6.37761 18.1176 7.38346 18.984 8.1392 19.5858C8.48964 19.8649 8.7851 20.0861 9 20.2423C9.2149 20.0861 9.51036 19.8649 9.8608 19.5858C10.6165 18.984 11.6224 18.1176 12.6259 17.0584C14.6611 14.9102 16.5625 12.0986 16.5625 9.16662C16.5625 7.16093 15.7657 5.23737 14.3475 3.81913C12.9293 2.40089 11.0057 1.60413 9 1.60413ZM9 21.0833C8.61864 21.6553 8.61846 21.6552 8.61825 21.6551L8.61593 21.6535L8.61023 21.6497L8.59005 21.636C8.57276 21.6243 8.54788 21.6073 8.51591 21.5851C8.45197 21.5409 8.35964 21.476 8.24298 21.3918C8.00973 21.2233 7.67879 20.9769 7.28268 20.6615C6.49154 20.0315 5.43489 19.1218 4.37591 18.004C2.28606 15.7981 0.0625 12.6513 0.0625 9.16662C0.0625001 6.79625 1.00413 4.52296 2.68023 2.84686C4.35634 1.17075 6.62963 0.229126 9 0.229126C11.3704 0.229126 13.6437 1.17075 15.3198 2.84686C16.9959 4.52296 17.9375 6.79625 17.9375 9.16662C17.9375 12.6513 15.7139 15.7981 13.6241 18.004C12.5651 19.1218 11.5085 20.0315 10.7173 20.6615C10.3212 20.9769 9.99027 21.2233 9.75702 21.3918C9.64036 21.476 9.54803 21.5409 9.48409 21.5851C9.45212 21.6073 9.42724 21.6243 9.40995 21.636L9.38977 21.6497L9.38407 21.6535L9.38234 21.6547C9.38212 21.6548 9.38136 21.6553 9 21.0833ZM9 21.0833L9.38136 21.6553C9.15043 21.8093 8.84918 21.809 8.61825 21.6551L9 21.0833ZM9 7.10413C7.86091 7.10413 6.9375 8.02754 6.9375 9.16663C6.9375 10.3057 7.86091 11.2291 9 11.2291C10.1391 11.2291 11.0625 10.3057 11.0625 9.16663C11.0625 8.02754 10.1391 7.10413 9 7.10413ZM5.5625 9.16663C5.5625 7.26815 7.10152 5.72913 9 5.72913C10.8985 5.72913 12.4375 7.26815 12.4375 9.16663C12.4375 11.0651 10.8985 12.6041 9 12.6041C7.10152 12.6041 5.5625 11.0651 5.5625 9.16663Z" fill="#32E12E"/>
</svg>
