<svg width="20" height="20" viewBox="0 0 20 20" fill="none" xmlns="http://www.w3.org/2000/svg">
<path fill-rule="evenodd" clip-rule="evenodd" d="M13 2C12.4477 2 12 1.55228 12 1C12 0.447715 12.4477 0 13 0H19C19.5523 0 20 0.447715 20 1V7C20 7.55228 19.5523 8 19 8C18.4477 8 18 7.55228 18 7V3.41421L8.70709 12.7071C8.31657 13.0976 7.6834 13.0976 7.29288 12.7071C6.90235 12.3166 6.90235 11.6834 7.29288 11.2929L16.5858 2H13ZM3 5C2.73478 5 2.48043 5.10536 2.29289 5.29289C2.10536 5.48043 2 5.73478 2 6V17C2 17.2652 2.10536 17.5196 2.29289 17.7071C2.48043 17.8946 2.73478 18 3 18H14C14.2652 18 14.5196 17.8946 14.7071 17.7071C14.8946 17.5196 15 17.2652 15 17V11C15 10.4477 15.4477 10 16 10C16.5523 10 17 10.4477 17 11V17C17 17.7957 16.6839 18.5587 16.1213 19.1213C15.5587 19.6839 14.7957 20 14 20H3C2.20435 20 1.44129 19.6839 0.87868 19.1213C0.31607 18.5587 0 17.7957 0 17V6C0 5.20435 0.31607 4.44129 0.87868 3.87868C1.44129 3.31607 2.20435 3 3 3H9C9.55229 3 10 3.44772 10 4C10 4.55228 9.55229 5 9 5H3Z" fill="#FF3023"/>
</svg>
