<svg width="16" height="16" viewBox="0 0 16 16" fill="none" xmlns="http://www.w3.org/2000/svg">
<path fill-rule="evenodd" clip-rule="evenodd" d="M7.25 1.8125C4.24695 1.8125 1.8125 4.24695 1.8125 7.25C1.8125 10.253 4.24695 12.6875 7.25 12.6875C8.7205 12.6875 10.0547 12.1038 11.0334 11.1554C11.0502 11.1325 11.069 11.1105 11.0898 11.0898C11.1105 11.069 11.1325 11.0502 11.1554 11.0334C12.1038 10.0547 12.6875 8.7205 12.6875 7.25C12.6875 4.24695 10.253 1.8125 7.25 1.8125ZM12.2712 11.4757C13.233 10.334 13.8125 8.85967 13.8125 7.25C13.8125 3.62563 10.8744 0.6875 7.25 0.6875C3.62563 0.6875 0.6875 3.62563 0.6875 7.25C0.6875 10.8744 3.62563 13.8125 7.25 13.8125C8.85967 13.8125 10.334 13.233 11.4757 12.2712L14.3523 15.1478C14.5719 15.3674 14.9281 15.3674 15.1478 15.1478C15.3674 14.9281 15.3674 14.5719 15.1478 14.3523L12.2712 11.4757Z" fill="#6F736E"/>
</svg>
