<svg width="20" height="22" viewBox="0 0 20 22" fill="none" xmlns="http://www.w3.org/2000/svg">
<path fill-rule="evenodd" clip-rule="evenodd" d="M15.75 1.75002C14.5074 1.75002 13.5 2.75737 13.5 4.00002C13.5 4.39493 13.6017 4.76609 13.7805 5.0887C13.79 5.10273 13.7991 5.11717 13.8077 5.13203C13.8163 5.14675 13.8244 5.16165 13.8318 5.1767C14.2277 5.82062 14.9387 6.25002 15.75 6.25002C16.9926 6.25002 18 5.24266 18 4.00002C18 2.75737 16.9926 1.75002 15.75 1.75002ZM12.9537 6.49876C13.6404 7.26668 14.6388 7.75002 15.75 7.75002C17.8211 7.75002 19.5 6.07108 19.5 4.00002C19.5 1.92895 17.8211 0.250015 15.75 0.250015C13.6789 0.250015 12 1.92895 12 4.00002C12 4.42097 12.0694 4.82573 12.1973 5.20348L6.54628 8.50128C5.85959 7.73335 4.86124 7.25 3.75 7.25C1.67893 7.25 0 8.92893 0 11C0 13.0711 1.67893 14.75 3.75 14.75C4.86137 14.75 5.85983 14.2665 6.54652 13.4984L12.1988 16.7921C12.0699 17.1711 12 17.5774 12 18C12 20.0711 13.6789 21.75 15.75 21.75C17.8211 21.75 19.5 20.0711 19.5 18C19.5 15.9289 17.8211 14.25 15.75 14.25C14.6404 14.25 13.6434 14.7319 12.9568 15.4978L7.30285 12.2031C7.43069 11.8254 7.5 11.4208 7.5 11C7.5 10.5791 7.43064 10.1743 7.30273 9.79657L12.9537 6.49876ZM5.66753 9.82228C5.67517 9.83771 5.68339 9.85298 5.69219 9.86807C5.70107 9.88328 5.7104 9.89807 5.72016 9.91241C5.89849 10.2348 6 10.6055 6 11C6 11.3946 5.8984 11.7656 5.71992 12.088C5.71016 12.1024 5.70083 12.1172 5.69195 12.1324C5.68332 12.1472 5.67525 12.1622 5.66774 12.1774C5.2718 12.8209 4.56101 13.25 3.75 13.25C2.50736 13.25 1.5 12.2426 1.5 11C1.5 9.75736 2.50736 8.75 3.75 8.75C4.56086 8.75 5.27155 9.17893 5.66753 9.82228ZM13.7536 16.9612C13.7771 16.9321 13.7986 16.9009 13.818 16.8676C13.8367 16.8355 13.8527 16.8026 13.8662 16.7692C14.268 16.1554 14.9617 15.75 15.75 15.75C16.9926 15.75 18 16.7573 18 18C18 19.2426 16.9926 20.25 15.75 20.25C14.5074 20.25 13.5 19.2426 13.5 18C13.5 17.6253 13.5916 17.2719 13.7536 16.9612Z" fill="#010B01"/>
</svg>
