<svg width="24" height="24" viewBox="0 0 24 24" fill="none" xmlns="http://www.w3.org/2000/svg">
<path fill-rule="evenodd" clip-rule="evenodd" d="M12 0.249985C12.4142 0.249985 12.75 0.585771 12.75 0.999985V2.99998C12.75 3.4142 12.4142 3.74998 12 3.74998C11.5858 3.74998 11.25 3.4142 11.25 2.99998V0.999985C11.25 0.585771 11.5858 0.249985 12 0.249985ZM3.68968 3.68962C3.98257 3.39673 4.45744 3.39673 4.75034 3.68962L6.17034 5.10962C6.46323 5.40252 6.46323 5.87739 6.17034 6.17028C5.87744 6.46318 5.40257 6.46318 5.10968 6.17028L3.68968 4.75028C3.39678 4.45739 3.39678 3.98252 3.68968 3.68962ZM20.3103 3.68962C20.6032 3.98252 20.6032 4.45739 20.3103 4.75028L18.8903 6.17028C18.5974 6.46318 18.1226 6.46318 17.8297 6.17028C17.5368 5.87739 17.5368 5.40251 17.8297 5.10962L19.2497 3.68962C19.5426 3.39673 20.0174 3.39673 20.3103 3.68962ZM12 7.74998C9.65279 7.74998 7.75 9.65277 7.75 12C7.75 14.3472 9.65279 16.25 12 16.25C14.3472 16.25 16.25 14.3472 16.25 12C16.25 9.65277 14.3472 7.74998 12 7.74998ZM6.25 12C6.25 8.82435 8.82436 6.24998 12 6.24998C15.1756 6.24998 17.75 8.82435 17.75 12C17.75 15.1756 15.1756 17.75 12 17.75C8.82436 17.75 6.25 15.1756 6.25 12ZM0.25 12C0.25 11.5858 0.585786 11.25 1 11.25H3C3.41421 11.25 3.75 11.5858 3.75 12C3.75 12.4142 3.41421 12.75 3 12.75H1C0.585786 12.75 0.25 12.4142 0.25 12ZM20.25 12C20.25 11.5858 20.5858 11.25 21 11.25H23C23.4142 11.25 23.75 11.5858 23.75 12C23.75 12.4142 23.4142 12.75 23 12.75H21C20.5858 12.75 20.25 12.4142 20.25 12ZM6.17034 17.8297C6.46323 18.1226 6.46323 18.5975 6.17034 18.8904L4.75034 20.3104C4.45744 20.6033 3.98257 20.6033 3.68968 20.3104C3.39678 20.0175 3.39678 19.5426 3.68968 19.2497L5.10968 17.8297C5.40257 17.5368 5.87745 17.5368 6.17034 17.8297ZM17.8297 17.8297C18.1226 17.5368 18.5974 17.5368 18.8903 17.8297L20.3103 19.2497C20.6032 19.5426 20.6032 20.0175 20.3103 20.3104C20.0174 20.6033 19.5426 20.6033 19.2497 20.3104L17.8297 18.8904C17.5368 18.5975 17.5368 18.1226 17.8297 17.8297ZM12 20.25C12.4142 20.25 12.75 20.5858 12.75 21V23C12.75 23.4142 12.4142 23.75 12 23.75C11.5858 23.75 11.25 23.4142 11.25 23V21C11.25 20.5858 11.5858 20.25 12 20.25Z" fill="#32E12E"/>
</svg>
