<svg width="22" height="22" viewBox="0 0 22 22" fill="none" xmlns="http://www.w3.org/2000/svg">
<path fill-rule="evenodd" clip-rule="evenodd" d="M9.31464 0.695396C9.43502 0.42455 9.70361 0.25 10 0.25C10.9946 0.25 11.9484 0.645088 12.6517 1.34835C13.3549 2.05161 13.75 3.00544 13.75 4V7.25H18.6561C19.0532 7.24617 19.4464 7.32837 19.8087 7.49097C20.1724 7.6542 20.4962 7.89456 20.7578 8.19538C21.0194 8.4962 21.2125 8.8503 21.3236 9.23314C21.4347 9.61598 21.4613 10.0184 21.4015 10.4125L20.0215 19.4124C20.0215 19.4125 20.0215 19.4124 20.0215 19.4124C19.9221 20.0681 19.589 20.6659 19.0836 21.0955C18.5794 21.524 17.9377 21.7564 17.2761 21.75H3C2.27065 21.75 1.57118 21.4603 1.05546 20.9445C0.539731 20.4288 0.25 19.7293 0.25 19V12C0.25 11.2707 0.539731 10.5712 1.05546 10.0555C1.57118 9.53973 2.27065 9.25 3 9.25H5.5126L9.31464 0.695396ZM5.25 10.75H3C2.66848 10.75 2.35054 10.8817 2.11612 11.1161C1.8817 11.3505 1.75 11.6685 1.75 12V19C1.75 19.3315 1.8817 19.6495 2.11612 19.8839C2.35054 20.1183 2.66848 20.25 3 20.25H5.25V10.75ZM6.75 20.25H17.2885C17.5899 20.2534 17.8825 20.1478 18.1122 19.9525C18.3419 19.7573 18.4933 19.4856 18.5385 19.1875L19.9185 10.1875C19.9185 10.1876 19.9185 10.1873 19.9185 10.1875C19.9456 10.0084 19.9336 9.82526 19.8831 9.65136C19.8326 9.47734 19.7448 9.31639 19.6259 9.17965C19.507 9.04291 19.3598 8.93366 19.1945 8.85946C19.0292 8.78527 18.8497 8.7479 18.6685 8.74995L18.66 8.75005L13 8.75C12.5858 8.75 12.25 8.41421 12.25 8V4C12.25 3.40326 12.0129 2.83097 11.591 2.40901C11.2806 2.09859 10.8888 1.88824 10.4657 1.79872L6.75 10.1592V20.25Z" fill="#2F363D"/>
</svg>
