<svg width="18" height="20" viewBox="0 0 18 20" fill="none" xmlns="http://www.w3.org/2000/svg">
<path fill-rule="evenodd" clip-rule="evenodd" d="M9.00003 1.75C7.20511 1.75 5.75003 3.20507 5.75003 5C5.75003 6.79493 7.20511 8.25 9.00003 8.25C10.795 8.25 12.25 6.79493 12.25 5C12.25 3.20507 10.795 1.75 9.00003 1.75ZM4.25003 5C4.25003 2.37665 6.37668 0.25 9.00003 0.25C11.6234 0.25 13.75 2.37665 13.75 5C13.75 7.62335 11.6234 9.75 9.00003 9.75C6.37668 9.75 4.25003 7.62335 4.25003 5ZM1.64124 13.6412C2.53204 12.7504 3.74022 12.25 5 12.25H13C14.2598 12.25 15.468 12.7504 16.3588 13.6412C17.2496 14.532 17.75 15.7402 17.75 17V19C17.75 19.4142 17.4142 19.75 17 19.75C16.5858 19.75 16.25 19.4142 16.25 19V17C16.25 16.138 15.9076 15.3114 15.2981 14.7019C14.6886 14.0924 13.862 13.75 13 13.75H5C4.13805 13.75 3.3114 14.0924 2.7019 14.7019C2.09241 15.3114 1.75 16.138 1.75 17V19C1.75 19.4142 1.41421 19.75 1 19.75C0.585786 19.75 0.25 19.4142 0.25 19V17C0.25 15.7402 0.750445 14.532 1.64124 13.6412Z" fill="#010B01"/>
</svg>
